<svg width="1125" height="262" viewBox="0 0 1125 262" fill="none" xmlns="http://www.w3.org/2000/svg">
<path d="M336.688 213H316.668C315.626 213 315.105 212.544 315.105 211.633L314.91 75.4023C314.91 74.3607 315.431 73.8398 316.473 73.8398H334.539L368.328 152.648L367.352 75.4023C367.352 74.3607 367.938 73.8398 369.109 73.8398H388.934C389.715 73.8398 390.105 74.3607 390.105 75.4023L390.301 211.828C390.301 212.609 389.975 213 389.324 213H371.746L337.078 139.367L338.543 211.438C338.543 212.479 337.924 213 336.688 213ZM473.113 213H408.465C407.944 213 407.684 212.674 407.684 212.023L407.879 74.6211C407.879 74.1003 408.139 73.8398 408.66 73.8398H472.918C473.439 73.8398 473.699 74.1654 473.699 74.8164V97.1797C473.699 97.7005 473.439 97.9609 472.918 97.9609H431.902V129.211H472.918C473.439 129.211 473.699 129.471 473.699 129.992L473.895 152.648C473.895 153.169 473.634 153.43 473.113 153.43H431.902V188.391H473.113C473.634 188.391 473.895 188.716 473.895 189.367V212.219C473.895 212.74 473.634 213 473.113 213ZM515.105 213H492.645C491.993 213 491.668 212.674 491.668 212.023L492.059 74.6211C492.059 74.1003 492.319 73.8398 492.84 73.8398H531.316C543.556 73.8398 553.224 77.5833 560.32 85.0703C567.482 92.4922 571.062 102.616 571.062 115.441C571.062 124.816 569.207 132.987 565.496 139.953C561.72 146.854 556.837 152.193 550.848 155.969C544.858 159.745 538.348 161.633 531.316 161.633H516.082V212.023C516.082 212.674 515.757 213 515.105 213ZM531.316 97.5703L516.082 97.7656V137.414H531.316C535.548 137.414 539.227 135.396 542.352 131.359C545.477 127.258 547.039 121.952 547.039 115.441C547.039 110.233 545.639 105.969 542.84 102.648C540.04 99.263 536.199 97.5703 531.316 97.5703ZM577.898 212.023L602.703 74.6211C602.833 74.1003 603.159 73.8398 603.68 73.8398H632.684C633.204 73.8398 633.53 74.1003 633.66 74.6211L657.488 212.023C657.553 212.674 657.293 213 656.707 213H634.539C633.888 213 633.53 212.674 633.465 212.023L631.316 197.375H604.07L601.922 212.023C601.857 212.674 601.531 213 600.945 213H578.68C578.159 213 577.898 212.674 577.898 212.023ZM619.109 119.836L617.938 112.414L617.059 119.836L608.074 175.988H627.312L619.109 119.836ZM735.418 213H670.77C670.249 213 669.988 212.674 669.988 212.023L670.184 74.8164C670.184 74.1654 670.509 73.8398 671.16 73.8398H693.426C694.077 73.8398 694.402 74.1654 694.402 74.8164L694.207 188.391H735.418C736.069 188.391 736.395 188.716 736.395 189.367V212.023C736.395 212.674 736.069 213 735.418 213ZM773.113 213H750.457C749.806 213 749.48 212.674 749.48 212.023L749.676 74.6211C749.676 74.1003 749.936 73.8398 750.457 73.8398H772.918C773.439 73.8398 773.699 74.1003 773.699 74.6211L773.895 212.023C773.895 212.674 773.634 213 773.113 213Z" fill="#DC143C"/>
<path d="M828.289 212.805L792.449 213C791.798 213 791.473 212.674 791.473 212.023L791.863 74.6211C791.863 74.1003 792.124 73.8398 792.645 73.8398L830.047 73.6445C837.469 73.4492 844.174 75.1419 850.164 78.7227C856.219 82.3034 861.036 87.1536 864.617 93.2734C868.263 99.3281 870.086 106.034 870.086 113.391V170.812C870.086 178.495 868.23 185.526 864.52 191.906C860.743 198.221 855.73 203.267 849.48 207.043C843.23 210.754 836.167 212.674 828.289 212.805ZM830.047 97.5703L816.082 97.7656L815.887 188.391H828.289C833.237 188.391 837.404 186.665 840.789 183.215C844.174 179.764 845.867 175.63 845.867 170.812V113.195C845.867 108.964 844.305 105.285 841.18 102.16C838.055 98.9701 834.344 97.4401 830.047 97.5703ZM879.07 212.023L903.875 74.6211C904.005 74.1003 904.331 73.8398 904.852 73.8398H933.855C934.376 73.8398 934.702 74.1003 934.832 74.6211L958.66 212.023C958.725 212.674 958.465 213 957.879 213H935.711C935.06 213 934.702 212.674 934.637 212.023L932.488 197.375H905.242L903.094 212.023C903.029 212.674 902.703 213 902.117 213H879.852C879.331 213 879.07 212.674 879.07 212.023ZM920.281 119.836L919.109 112.414L918.23 119.836L909.246 175.988H928.484L920.281 119.836ZM1013.84 213H991.277C990.691 213 990.398 212.674 990.398 212.023V97.9609H964.422C963.771 97.9609 963.445 97.6354 963.445 96.9844L963.641 74.6211C963.641 74.1003 963.901 73.8398 964.422 73.8398H1040.4C1041.11 73.8398 1041.47 74.1003 1041.47 74.6211V96.9844C1041.47 97.6354 1041.21 97.9609 1040.69 97.9609H1014.42L1014.62 212.023C1014.62 212.674 1014.36 213 1013.84 213ZM1044.5 212.023L1069.3 74.6211C1069.43 74.1003 1069.76 73.8398 1070.28 73.8398H1099.29C1099.81 73.8398 1100.13 74.1003 1100.26 74.6211L1124.09 212.023C1124.15 212.674 1123.89 213 1123.31 213H1101.14C1100.49 213 1100.13 212.674 1100.07 212.023L1097.92 197.375H1070.67L1068.52 212.023C1068.46 212.674 1068.13 213 1067.55 213H1045.28C1044.76 213 1044.5 212.674 1044.5 212.023ZM1085.71 119.836L1084.54 112.414L1083.66 119.836L1074.68 175.988H1093.91L1085.71 119.836Z" fill="#003893"/>
<circle cx="131" cy="131" r="131" fill="#D9D9D9"/>
<path d="M131 108.875C163.401 108.875 189.667 99.1932 189.667 87.25C189.667 75.3068 163.401 65.625 131 65.625C98.5993 65.625 72.3333 75.3068 72.3333 87.25C72.3333 99.1932 98.5993 108.875 131 108.875Z" fill="#D9D9D9" stroke="#DC143C" stroke-width="5" stroke-linecap="round" stroke-linejoin="round"/>
<path d="M72.3333 87.25V130.5C72.3333 136.235 78.5143 141.736 89.5164 145.791C100.519 149.847 115.441 152.125 131 152.125C146.559 152.125 161.481 149.847 172.484 145.791C183.486 141.736 189.667 136.235 189.667 130.5V87.25" stroke="#DC143C" stroke-width="5" stroke-linecap="round" stroke-linejoin="round"/>
<path d="M72.3333 130.5V173.75C72.3333 179.485 78.5143 184.986 89.5164 189.041C100.519 193.097 115.441 195.375 131 195.375C146.559 195.375 161.481 193.097 172.484 189.041C183.486 184.986 189.667 179.485 189.667 173.75V130.5" stroke="#DC143C" stroke-width="5" stroke-linecap="round" stroke-linejoin="round"/>
</svg>
