<svg  viewBox="0 0 702 702" fill="none" xmlns="http://www.w3.org/2000/svg">
<g clip-path="url(#clip0_3_3)">
<circle cx="351" cy="156" r="128.5" fill="#F7F7F7" stroke="#003893" stroke-width="5"/>
<path d="M351 133.875C383.401 133.875 409.667 124.193 409.667 112.25C409.667 100.307 383.401 90.625 351 90.625C318.599 90.625 292.333 100.307 292.333 112.25C292.333 124.193 318.599 133.875 351 133.875Z" stroke="#DC143C" stroke-width="5" stroke-linecap="round" stroke-linejoin="round"/>
<path d="M292.333 112.25V155.5C292.333 161.235 298.514 166.736 309.516 170.791C320.519 174.847 335.441 177.125 351 177.125C366.559 177.125 381.481 174.847 392.484 170.791C403.486 166.736 409.667 161.235 409.667 155.5V112.25" stroke="#DC143C" stroke-width="5" stroke-linecap="round" stroke-linejoin="round"/>
<path d="M292.333 155.5V198.75C292.333 204.485 298.514 209.986 309.516 214.041C320.519 218.097 335.441 220.375 351 220.375C366.559 220.375 381.481 218.097 392.484 214.041C403.486 209.986 409.667 204.485 409.667 198.75V155.5" stroke="#DC143C" stroke-width="5" stroke-linecap="round" stroke-linejoin="round"/>
<path d="M142.406 454H122.387C121.345 454 120.824 453.544 120.824 452.633L120.629 316.402C120.629 315.361 121.15 314.84 122.191 314.84H140.258L174.047 393.648L173.07 316.402C173.07 315.361 173.656 314.84 174.828 314.84H194.652C195.434 314.84 195.824 315.361 195.824 316.402L196.02 452.828C196.02 453.609 195.694 454 195.043 454H177.465L142.797 380.367L144.262 452.438C144.262 453.479 143.643 454 142.406 454ZM278.832 454H214.184C213.663 454 213.402 453.674 213.402 453.023L213.598 315.621C213.598 315.1 213.858 314.84 214.379 314.84H278.637C279.158 314.84 279.418 315.165 279.418 315.816V338.18C279.418 338.701 279.158 338.961 278.637 338.961H237.621V370.211H278.637C279.158 370.211 279.418 370.471 279.418 370.992L279.613 393.648C279.613 394.169 279.353 394.43 278.832 394.43H237.621V429.391H278.832C279.353 429.391 279.613 429.716 279.613 430.367V453.219C279.613 453.74 279.353 454 278.832 454ZM320.824 454H298.363C297.712 454 297.387 453.674 297.387 453.023L297.777 315.621C297.777 315.1 298.038 314.84 298.559 314.84H337.035C349.275 314.84 358.943 318.583 366.039 326.07C373.201 333.492 376.781 343.616 376.781 356.441C376.781 365.816 374.926 373.987 371.215 380.953C367.439 387.854 362.556 393.193 356.566 396.969C350.577 400.745 344.066 402.633 337.035 402.633H321.801V453.023C321.801 453.674 321.475 454 320.824 454ZM337.035 338.57L321.801 338.766V378.414H337.035C341.267 378.414 344.945 376.396 348.07 372.359C351.195 368.258 352.758 362.952 352.758 356.441C352.758 351.233 351.358 346.969 348.559 343.648C345.759 340.263 341.918 338.57 337.035 338.57ZM383.617 453.023L408.422 315.621C408.552 315.1 408.878 314.84 409.398 314.84H438.402C438.923 314.84 439.249 315.1 439.379 315.621L463.207 453.023C463.272 453.674 463.012 454 462.426 454H440.258C439.607 454 439.249 453.674 439.184 453.023L437.035 438.375H409.789L407.641 453.023C407.576 453.674 407.25 454 406.664 454H384.398C383.878 454 383.617 453.674 383.617 453.023ZM424.828 360.836L423.656 353.414L422.777 360.836L413.793 416.988H433.031L424.828 360.836ZM541.137 454H476.488C475.967 454 475.707 453.674 475.707 453.023L475.902 315.816C475.902 315.165 476.228 314.84 476.879 314.84H499.145C499.796 314.84 500.121 315.165 500.121 315.816L499.926 429.391H541.137C541.788 429.391 542.113 429.716 542.113 430.367V453.023C542.113 453.674 541.788 454 541.137 454ZM578.832 454H556.176C555.525 454 555.199 453.674 555.199 453.023L555.395 315.621C555.395 315.1 555.655 314.84 556.176 314.84H578.637C579.158 314.84 579.418 315.1 579.418 315.621L579.613 453.023C579.613 453.674 579.353 454 578.832 454Z" fill="#DC143C"/>
<path d="M223.168 611.805L187.328 612C186.677 612 186.352 611.674 186.352 611.023L186.742 473.621C186.742 473.1 187.003 472.84 187.523 472.84L224.926 472.645C232.348 472.449 239.053 474.142 245.043 477.723C251.098 481.303 255.915 486.154 259.496 492.273C263.142 498.328 264.965 505.034 264.965 512.391V569.812C264.965 577.495 263.109 584.526 259.398 590.906C255.622 597.221 250.609 602.267 244.359 606.043C238.109 609.754 231.046 611.674 223.168 611.805ZM224.926 496.57L210.961 496.766L210.766 587.391H223.168C228.116 587.391 232.283 585.665 235.668 582.215C239.053 578.764 240.746 574.63 240.746 569.812V512.195C240.746 507.964 239.184 504.285 236.059 501.16C232.934 497.97 229.223 496.44 224.926 496.57ZM273.949 611.023L298.754 473.621C298.884 473.1 299.21 472.84 299.73 472.84H328.734C329.255 472.84 329.581 473.1 329.711 473.621L353.539 611.023C353.604 611.674 353.344 612 352.758 612H330.59C329.939 612 329.581 611.674 329.516 611.023L327.367 596.375H300.121L297.973 611.023C297.908 611.674 297.582 612 296.996 612H274.73C274.21 612 273.949 611.674 273.949 611.023ZM315.16 518.836L313.988 511.414L313.109 518.836L304.125 574.988H323.363L315.16 518.836ZM408.715 612H386.156C385.57 612 385.277 611.674 385.277 611.023V496.961H359.301C358.65 496.961 358.324 496.635 358.324 495.984L358.52 473.621C358.52 473.1 358.78 472.84 359.301 472.84H435.277C435.993 472.84 436.352 473.1 436.352 473.621V495.984C436.352 496.635 436.091 496.961 435.57 496.961H409.301L409.496 611.023C409.496 611.674 409.236 612 408.715 612ZM439.379 611.023L464.184 473.621C464.314 473.1 464.639 472.84 465.16 472.84H494.164C494.685 472.84 495.01 473.1 495.141 473.621L518.969 611.023C519.034 611.674 518.773 612 518.188 612H496.02C495.368 612 495.01 611.674 494.945 611.023L492.797 596.375H465.551L463.402 611.023C463.337 611.674 463.012 612 462.426 612H440.16C439.639 612 439.379 611.674 439.379 611.023ZM480.59 518.836L479.418 511.414L478.539 518.836L469.555 574.988H488.793L480.59 518.836Z" fill="#003893"/>
</g>
<defs>
<clipPath id="clip0_3_3">
<rect width="702" height="702" fill="white"/>
</clipPath>
</defs>
</svg>
